# xmcd
#
# Track frame offsets:
#	150
#	15676
#	28179
#	42497
#	60337
#	77560
#	94054
#	109608
#	120285
#	137703
#	152933
#	167118
#	181224
#	195645
#	208198
#	226739
#	243488
#	261304
#	275143
#
# Disc length: 3833 seconds
#
# Revision: 0
# Processed by: cddbd v1.5.2PL0 Copyright (c) Steve Scherf et al.
# Submitted via: audiograbber 1.83.01
#
DISCID=050ef713
DTITLE=Various Artist - Hott Countrt 163
DYEAR=2009
DGENRE=Country
TTITLE0=Jessie Farrell - You Make Me Feel
TTITLE1=Toby Keith - American Ride
TTITLE2=Josh Turner - Why Don't We Just Dance
TTITLE3=Road Hammers - Goodbye Dust
TTITLE4=Billy Ray Cyrus - A Good Day
TTITLE5=Carrie Underwood - Cowboy Casanova
TTITLE6=Darius Rucker - History In The Making
TTITLE7=George Strait - El Rey
TTITLE8=Lady Antebellum - Need You Now
TTITLE9=Phil Vassar - Everywhere I Go
TTITLE10=Jason Greeley - Usually
TTITLE11=Josh Thompson - Beer On The Table
TTITLE12=Jaydee Bixby - My So Called Life
TTITLE13=Cledus T Judd - If I Kellie Pickler's Boobs
TTITLE14=Jamey Johnson - My Way To You
TTITLE15=Tara Oram - Living The Dream
TTITLE16=Mallary Hope - Love Lives On
TTITLE17=Willie Mack - A Love Like That
TTITLE18=Hank Williams - I'm So Lonesome I Could Cry ( 1976 )
EXTD=September 2009
EXTT0=
EXTT1=
EXTT2=
EXTT3=
EXTT4=
EXTT5=
EXTT6=
EXTT7=
EXTT8=
EXTT9=
EXTT10=
EXTT11=
EXTT12=
EXTT13=
EXTT14=
EXTT15=
EXTT16=
EXTT17=
EXTT18=
PLAYORDER=
